<svg width="225" height="156" viewBox="0 0 225 156" fill="none" xmlns="http://www.w3.org/2000/svg">
<path d="M116.528 110.687C99.7512 131.986 68.1137 135.338 45.8128 117.771C23.5119 100.205 19.3604 68.6627 36.1374 47.3636C52.9145 26.0645 84.552 22.7127 106.853 40.279C129.154 57.8452 133.305 89.3877 116.528 110.687Z" stroke="url(#paint0_linear_1_2)" stroke-width="8"/>
<path d="M113.654 39.4022C133.59 21.0262 165.359 22.7227 184.599 43.5964C203.84 64.4701 202.948 96.2722 183.012 114.648C163.076 133.024 131.307 131.328 112.066 110.454C92.8259 89.5802 93.7178 57.7782 113.654 39.4022Z" stroke="url(#paint1_linear_1_2)" stroke-width="8"/>
<path d="M75.0859 85.3828C74.5859 86.2109 74.0547 86.9922 73.4922 87.7266C72.9297 88.4453 72.3359 89.0781 71.7109 89.625C71.1016 90.1562 70.4688 90.5703 69.8125 90.8672C69.1563 91.1797 68.4844 91.3359 67.7969 91.3359C67.4531 91.3359 67.0859 91.2656 66.6953 91.125C66.3203 90.9844 65.9688 90.75 65.6406 90.4219C65.3281 90.1094 65.0625 89.6875 64.8438 89.1562C64.6406 88.625 64.5391 87.9609 64.5391 87.1641V60.1406C63.4609 60.2812 62.4375 60.5859 61.4688 61.0547C60.5156 61.5234 59.6797 62.1641 58.9609 62.9766C58.2578 63.7891 57.6953 64.7734 57.2734 65.9297C56.8672 67.0859 56.6641 68.4219 56.6641 69.9375C56.6641 70.9062 56.7656 71.7812 56.9688 72.5625C57.1719 73.3281 57.4141 73.9844 57.6953 74.5312C57.9766 75.0625 58.2578 75.4766 58.5391 75.7734C58.8203 76.0703 59.0391 76.2187 59.1953 76.2187C59.3359 76.2187 59.4688 76.1875 59.5938 76.125C59.7188 76.0625 59.8438 76.0312 59.9688 76.0312C60.2188 76.0312 60.3438 76.2266 60.3438 76.6172C60.3438 77.1172 60.2266 77.6016 59.9922 78.0703C59.7734 78.5234 59.4922 78.8984 59.1484 79.1953C58.8047 79.4766 58.4297 79.6562 58.0234 79.7344C57.6172 79.8125 57.2422 79.7266 56.8984 79.4766C56.4766 79.1953 56.0234 78.7656 55.5391 78.1875C55.0703 77.6094 54.6328 76.9141 54.2266 76.1016C53.8359 75.2734 53.5078 74.3437 53.2422 73.3125C52.9922 72.2812 52.8672 71.1562 52.8672 69.9375C52.8672 68.25 53.0703 66.7422 53.4766 65.4141C53.8828 64.0703 54.4219 62.8984 55.0938 61.8984C55.7813 60.8984 56.5781 60.0469 57.4844 59.3437C58.3906 58.6406 59.3438 58.0703 60.3438 57.6328C61.3438 57.1953 62.3594 56.8828 63.3906 56.6953C64.4219 56.4922 65.4063 56.3906 66.3438 56.3906C66.5938 56.3906 66.8359 56.4453 67.0703 56.5547C67.3047 56.6484 67.5078 56.7891 67.6797 56.9766C67.8516 57.1484 67.9922 57.3594 68.1016 57.6094C68.2109 57.8594 68.2656 58.125 68.2656 58.4062V86.8828C68.2656 87.1953 68.3125 87.3906 68.4063 87.4687C68.5156 87.5312 68.6172 87.5625 68.7109 87.5625C68.9453 87.5625 69.2656 87.3984 69.6719 87.0703C70.0781 86.7266 70.5156 86.2812 70.9844 85.7344C71.4688 85.1719 71.9531 84.5312 72.4375 83.8125C72.9219 83.0781 73.3594 82.3203 73.75 81.5391C74.1406 80.7578 74.4609 79.9766 74.7109 79.1953C74.9609 78.4141 75.0859 77.6797 75.0859 76.9922V58.7578C75.0859 58.3047 75.0547 57.9766 74.9922 57.7734C74.9297 57.5703 74.8984 57.3828 74.8984 57.2109C74.8984 56.9766 75.0156 56.7812 75.25 56.625C75.5 56.4687 75.7969 56.3906 76.1406 56.3906C76.9375 56.3906 77.5859 56.6016 78.0859 57.0234C78.5859 57.4297 78.8359 57.9297 78.8359 58.5234V79.3359C78.8359 80.9141 78.8438 82.2812 78.8594 83.4375C78.8906 84.5781 78.9297 85.5625 78.9766 86.3906C79.0234 87.2031 79.0703 87.8906 79.1172 88.4531C79.1641 89 79.2109 89.4687 79.2578 89.8594C79.3516 90 79.3984 90.1094 79.3984 90.1875C79.3984 90.3437 79.3203 90.4922 79.1641 90.6328C79.0078 90.7734 78.8125 90.8906 78.5781 90.9844C78.3438 91.0937 78.0781 91.1797 77.7813 91.2422C77.5 91.3047 77.2266 91.3359 76.9609 91.3359C76.5391 91.3359 76.2109 91.2109 75.9766 90.9609C75.7422 90.7266 75.5625 90.3672 75.4375 89.8828C75.3281 89.3828 75.25 88.7656 75.2031 88.0312C75.1563 87.2969 75.1172 86.4453 75.0859 85.4766V85.3828ZM85.9844 83.4141C85.8594 83.9141 85.625 84.2266 85.2813 84.3516C84.9375 84.4609 84.5938 84.4453 84.25 84.3047C83.9219 84.1641 83.6406 83.9219 83.4063 83.5781C83.1875 83.2344 83.125 82.8594 83.2188 82.4531C83.4531 81.3906 83.7891 80.2187 84.2266 78.9375C84.6797 77.6406 85.125 76.3516 85.5625 75.0703C85.3281 74.7109 85.1406 74.3516 85 73.9922C84.8594 73.6172 84.7891 73.2266 84.7891 72.8203C84.7891 72.4141 84.9375 71.9922 85.2344 71.5547C85.5469 71.1016 85.9141 70.6875 86.3359 70.3125C86.7734 69.9375 87.2188 69.6328 87.6719 69.3984C88.1406 69.1484 88.5391 69.0234 88.8672 69.0234C89.4453 69.0234 89.875 69.2187 90.1563 69.6094C90.4531 70 90.6016 70.5234 90.6016 71.1797C90.6016 71.5391 90.5391 71.8984 90.4141 72.2578C90.3047 72.6016 90.1797 72.9297 90.0391 73.2422C89.8984 73.5391 89.7656 73.7969 89.6406 74.0156C89.5313 74.2344 89.4688 74.375 89.4531 74.4375C90.0156 75.4375 90.6016 76.3203 91.2109 77.0859C91.8203 77.8516 92.375 78.6094 92.875 79.3594C93.3906 80.1094 93.8125 80.9062 94.1406 81.75C94.4688 82.5937 94.6328 83.5859 94.6328 84.7266C94.6328 85.0078 94.6094 85.2969 94.5625 85.5937C94.5313 85.8906 94.4766 86.1719 94.3984 86.4375C94.9609 86.3281 95.4531 86.1562 95.875 85.9219C96.3125 85.6875 96.6875 85.4219 97 85.125C97.3281 84.8125 97.5938 84.4766 97.7969 84.1172C98.0156 83.7578 98.1953 83.3828 98.3359 82.9922C98.5078 82.5391 98.6797 82.2109 98.8516 82.0078C99.0234 81.8047 99.2188 81.7031 99.4375 81.7031C99.6406 81.7031 99.8438 81.7734 100.047 81.9141C100.266 82.0391 100.453 82.2031 100.609 82.4062C100.781 82.6094 100.914 82.8203 101.008 83.0391C101.117 83.2578 101.172 83.4531 101.172 83.625C101.172 83.8594 101.109 84.1406 100.984 84.4687C100.859 84.7969 100.688 85.1328 100.469 85.4766C100.266 85.8203 100.031 86.1562 99.7656 86.4844C99.5 86.7969 99.2266 87.0703 98.9453 87.3047C98.1953 87.9141 97.3125 88.4297 96.2969 88.8516C95.2813 89.2578 94.0234 89.5156 92.5234 89.625C91.9453 90.125 91.2578 90.5312 90.4609 90.8437C89.6797 91.1719 88.7969 91.3359 87.8125 91.3359C87.3125 91.3359 86.7969 91.2734 86.2656 91.1484C85.75 91.0234 85.25 90.8594 84.7656 90.6562C84.2969 90.4687 83.8672 90.2578 83.4766 90.0234C83.0859 89.7891 82.7734 89.5547 82.5391 89.3203C81.9453 88.7578 81.5625 88.1953 81.3906 87.6328C81.2188 87.0547 81.1797 86.5391 81.2734 86.0859C81.3516 85.6328 81.5156 85.2656 81.7656 84.9844C82.0156 84.6875 82.2734 84.5391 82.5391 84.5391C82.6953 84.5391 82.9375 84.6094 83.2656 84.75C83.6094 84.875 84 85.0469 84.4375 85.2656C84.875 85.4687 85.3516 85.6875 85.8672 85.9219C86.3828 86.1562 86.8984 86.3828 87.4141 86.6016C87.9297 86.8047 88.4297 86.9766 88.9141 87.1172C89.4141 87.2422 89.8672 87.3047 90.2734 87.3047C90.5391 86.9922 90.7813 86.5781 91 86.0625C91.2188 85.5469 91.3281 84.9844 91.3281 84.375C91.3281 83.625 91.2266 82.9297 91.0234 82.2891C90.8203 81.6484 90.5547 81.0547 90.2266 80.5078C89.8984 79.9609 89.5234 79.4531 89.1016 78.9844C88.6953 78.5 88.2813 78.0469 87.8594 77.625C87.4844 78.5469 87.1563 79.4609 86.875 80.3672C86.5938 81.2578 86.2969 82.2734 85.9844 83.4141ZM116.688 87.3047C116.688 88.3672 116.617 89.2734 116.477 90.0234C116.352 90.7734 116.172 91.3828 115.938 91.8516C115.703 92.3203 115.414 92.6641 115.07 92.8828C114.742 93.1016 114.383 93.2109 113.992 93.2109C113.695 93.2109 113.367 93.1094 113.008 92.9062C112.648 92.7031 112.305 92.4531 111.977 92.1562C111.664 91.8594 111.398 91.5547 111.18 91.2422C110.977 90.9297 110.875 90.6562 110.875 90.4219C110.875 90.2656 110.891 90.1641 110.922 90.1172C110.969 90.0859 111.023 90.0703 111.086 90.0703C111.164 90.0859 111.25 90.1094 111.344 90.1406C111.453 90.1719 111.57 90.1875 111.695 90.1875C112.133 90.1875 112.445 89.9141 112.633 89.3672C112.836 88.8047 112.938 87.9141 112.938 86.6953V79.1484H110.453C110.203 79.1484 109.969 79.0703 109.75 78.9141C109.547 78.7578 109.367 78.5625 109.211 78.3281C109.055 78.0937 108.93 77.8359 108.836 77.5547C108.758 77.2734 108.719 77.0078 108.719 76.7578C108.719 76.4922 108.773 76.2656 108.883 76.0781C109.008 75.8906 109.195 75.7969 109.445 75.7969H112.938V60.1875C111.25 60.2969 109.711 60.5469 108.32 60.9375C106.93 61.3281 105.734 61.9219 104.734 62.7187C103.734 63.5156 102.953 64.5547 102.391 65.8359C101.844 67.1016 101.57 68.6797 101.57 70.5703C101.57 71.3984 101.648 72.1484 101.805 72.8203C101.977 73.4766 102.195 74.0703 102.461 74.6016C102.727 75.1328 103.016 75.6016 103.328 76.0078C103.656 76.4141 103.977 76.7734 104.289 77.0859C104.555 77.0078 104.742 77.0391 104.852 77.1797C104.961 77.3203 105.016 77.5156 105.016 77.7656C105.016 78.0781 104.945 78.4062 104.805 78.75C104.68 79.0781 104.508 79.3828 104.289 79.6641C104.07 79.9297 103.82 80.1562 103.539 80.3437C103.273 80.5156 103 80.6016 102.719 80.6016C102.594 80.6016 102.469 80.5859 102.344 80.5547C102.234 80.5234 102.117 80.4531 101.992 80.3437C101.648 80.0937 101.234 79.6875 100.75 79.125C100.266 78.5469 99.8047 77.8359 99.3672 76.9922C98.9297 76.1484 98.5547 75.1875 98.2422 74.1094C97.9297 73.0156 97.7734 71.8359 97.7734 70.5703C97.7734 65.9609 99.2422 62.4453 102.18 60.0234C105.133 57.6016 109.484 56.3906 115.234 56.3906C115.672 56.3906 116.219 56.3984 116.875 56.4141C117.547 56.4141 118.258 56.4141 119.008 56.4141C119.758 56.4141 120.516 56.4219 121.281 56.4375C122.063 56.4531 122.781 56.4609 123.438 56.4609C124.109 56.4609 124.68 56.4687 125.148 56.4844C125.633 56.4844 125.961 56.4844 126.133 56.4844C126.367 56.4844 126.563 56.4687 126.719 56.4375C126.875 56.3906 127 56.3437 127.094 56.2969C127.203 56.25 127.281 56.2109 127.328 56.1797C127.391 56.1328 127.445 56.1094 127.492 56.1094C127.57 56.1094 127.648 56.1641 127.727 56.2734C127.805 56.3672 127.875 56.4922 127.938 56.6484C128 56.7891 128.047 56.9531 128.078 57.1406C128.125 57.3281 128.148 57.5156 128.148 57.7031C128.148 57.9844 128.102 58.2812 128.008 58.5937C127.93 58.8906 127.797 59.1641 127.609 59.4141C127.422 59.6484 127.188 59.8437 126.906 60C126.641 60.1562 126.32 60.2344 125.945 60.2344C125.805 60.2344 125.547 60.2344 125.172 60.2344C124.797 60.2187 124.344 60.2109 123.813 60.2109C123.297 60.1953 122.727 60.1875 122.102 60.1875C121.477 60.1719 120.844 60.1641 120.203 60.1641C119.578 60.1484 118.961 60.1406 118.352 60.1406C117.742 60.125 117.188 60.1094 116.688 60.0937V75.7969H122.688C122.938 75.6094 123.125 75.5625 123.25 75.6562C123.375 75.75 123.445 75.9219 123.461 76.1719C123.492 76.4219 123.477 76.7187 123.414 77.0625C123.367 77.4062 123.281 77.7344 123.156 78.0469C123.047 78.3437 122.914 78.6016 122.758 78.8203C122.602 79.0391 122.43 79.1484 122.242 79.1484H116.688V87.3047ZM129.109 66.9141C128.719 66.9141 128.344 66.8359 127.984 66.6797C127.641 66.5234 127.336 66.3125 127.07 66.0469C126.82 65.7812 126.617 65.4766 126.461 65.1328C126.305 64.7734 126.227 64.3906 126.227 63.9844C126.227 63.5625 126.305 63.1719 126.461 62.8125C126.617 62.4531 126.82 62.1484 127.07 61.8984C127.336 61.6328 127.641 61.4297 127.984 61.2891C128.344 61.1328 128.719 61.0547 129.109 61.0547C129.531 61.0547 129.922 61.1328 130.281 61.2891C130.641 61.4297 130.945 61.6328 131.195 61.8984C131.461 62.1484 131.664 62.4531 131.805 62.8125C131.961 63.1719 132.039 63.5625 132.039 63.9844C132.039 64.3906 131.961 64.7734 131.805 65.1328C131.664 65.4766 131.461 65.7812 131.195 66.0469C130.945 66.3125 130.641 66.5234 130.281 66.6797C129.922 66.8359 129.531 66.9141 129.109 66.9141ZM130.211 85.9687C130.211 86.0781 130.219 86.2578 130.234 86.5078C130.25 86.7422 130.297 86.9844 130.375 87.2344C130.453 87.4844 130.578 87.7031 130.75 87.8906C130.922 88.0781 131.164 88.1719 131.477 88.1719C131.945 88.1719 132.352 88 132.695 87.6562C133.055 87.3125 133.359 86.8828 133.609 86.3672C133.875 85.8516 134.094 85.2969 134.266 84.7031C134.438 84.0937 134.578 83.5234 134.688 82.9922C134.781 82.5078 134.922 82.1562 135.109 81.9375C135.313 81.7187 135.523 81.6016 135.742 81.5859C135.977 81.5547 136.203 81.6094 136.422 81.75C136.656 81.8906 136.859 82.0781 137.031 82.3125C137.219 82.5312 137.352 82.7812 137.43 83.0625C137.523 83.3437 137.539 83.6094 137.477 83.8594C137.258 84.6562 136.969 85.4922 136.609 86.3672C136.266 87.2422 135.82 88.0469 135.273 88.7812C134.727 89.5156 134.07 90.125 133.305 90.6094C132.539 91.0937 131.641 91.3359 130.609 91.3359C129.969 91.3359 129.398 91.2109 128.898 90.9609C128.398 90.7266 127.977 90.4062 127.633 90C127.289 89.5937 127.023 89.1172 126.836 88.5703C126.664 88.0234 126.578 87.4453 126.578 86.8359V74.0156C126.578 73.5625 126.539 73.2344 126.461 73.0312C126.398 72.8281 126.367 72.6406 126.367 72.4687C126.367 72.2344 126.492 72.0469 126.742 71.9062C126.992 71.75 127.289 71.6719 127.633 71.6719C128.43 71.6719 129.055 71.8828 129.508 72.3047C129.977 72.7109 130.211 73.2031 130.211 73.7812V85.9687ZM145.328 91.3359C144.766 91.3359 144.188 91.25 143.594 91.0781C143.016 90.9062 142.484 90.6094 142 90.1875C141.531 89.7656 141.141 89.2109 140.828 88.5234C140.531 87.8203 140.383 86.9375 140.383 85.875C140.383 84.3281 140.586 82.6953 140.992 80.9766C141.414 79.2422 142.016 77.3359 142.797 75.2578H139.141H138.602C138.586 75.7266 138.555 76.3203 138.508 77.0391C138.477 77.7578 138.414 78.5234 138.32 79.3359C138.227 80.1484 138.102 80.9687 137.945 81.7969C137.805 82.625 137.625 83.3906 137.406 84.0937C137.25 84.5937 137 84.8828 136.656 84.9609C136.328 85.0391 136 84.9844 135.672 84.7969C135.344 84.5937 135.078 84.3047 134.875 83.9297C134.672 83.5547 134.625 83.1641 134.734 82.7578C134.859 82.2734 134.969 81.6875 135.063 81C135.156 80.2969 135.227 79.5625 135.273 78.7969C135.336 78.0156 135.383 77.2422 135.414 76.4766C135.445 75.6953 135.469 75 135.484 74.3906C134.891 74.0625 134.398 73.6484 134.008 73.1484C133.617 72.6328 133.422 72.0234 133.422 71.3203C133.422 70.9922 133.484 70.6953 133.609 70.4297C133.75 70.1484 133.93 69.9141 134.148 69.7266C134.367 69.5234 134.625 69.375 134.922 69.2812C135.219 69.1719 135.523 69.1172 135.836 69.1172C136.117 69.1172 136.406 69.1562 136.703 69.2344C137.016 69.3125 137.305 69.4531 137.57 69.6562C137.852 69.8594 138.102 70.125 138.32 70.4531C138.539 70.7812 138.719 71.1875 138.859 71.6719C139.25 71.7187 139.578 71.7578 139.844 71.7891C140.125 71.8047 140.359 71.8203 140.547 71.8359C140.734 71.8516 140.891 71.8594 141.016 71.8594C141.141 71.8594 141.266 71.8594 141.391 71.8594H143.898C144.039 71.8594 144.242 71.9453 144.508 72.1172C144.789 72.2891 145.063 72.5156 145.328 72.7969C145.594 73.0625 145.813 73.3516 145.984 73.6641C146.172 73.9766 146.242 74.2734 146.195 74.5547C146.195 74.6484 146.141 74.875 146.031 75.2344C145.922 75.5937 145.789 76.0469 145.633 76.5937C145.477 77.1406 145.305 77.7734 145.117 78.4922C144.93 79.1953 144.758 79.9375 144.602 80.7187C144.445 81.5 144.313 82.3125 144.203 83.1562C144.094 83.9844 144.039 84.7969 144.039 85.5937C144.039 85.9219 144.078 86.2422 144.156 86.5547C144.234 86.8672 144.352 87.1484 144.508 87.3984C144.664 87.6328 144.859 87.8203 145.094 87.9609C145.344 88.1016 145.633 88.1719 145.961 88.1719C146.508 88.1719 146.977 88 147.367 87.6562C147.758 87.3125 148.086 86.8828 148.352 86.3672C148.617 85.8516 148.828 85.2969 148.984 84.7031C149.156 84.0937 149.297 83.5234 149.406 82.9922C149.5 82.4922 149.656 82.1328 149.875 81.9141C150.094 81.6797 150.32 81.5625 150.555 81.5625C150.742 81.5625 150.938 81.625 151.141 81.75C151.344 81.8594 151.523 82.0078 151.68 82.1953C151.852 82.3828 151.984 82.5937 152.078 82.8281C152.188 83.0625 152.242 83.2969 152.242 83.5312C152.242 83.6094 152.234 83.6719 152.219 83.7187C152.203 83.7656 152.195 83.8125 152.195 83.8594C151.977 84.6562 151.688 85.4922 151.328 86.3672C150.984 87.2422 150.539 88.0469 149.992 88.7812C149.445 89.5156 148.789 90.125 148.023 90.6094C147.258 91.0937 146.359 91.3359 145.328 91.3359ZM152.359 83.4141C152.234 83.9141 152 84.2266 151.656 84.3516C151.313 84.4609 150.969 84.4453 150.625 84.3047C150.297 84.1641 150.016 83.9219 149.781 83.5781C149.563 83.2344 149.5 82.8594 149.594 82.4531C149.828 81.3906 150.164 80.2187 150.602 78.9375C151.055 77.6406 151.5 76.3516 151.938 75.0703C151.703 74.7109 151.516 74.3516 151.375 73.9922C151.234 73.6172 151.164 73.2266 151.164 72.8203C151.164 72.4141 151.313 71.9922 151.609 71.5547C151.922 71.1016 152.289 70.6875 152.711 70.3125C153.148 69.9375 153.594 69.6328 154.047 69.3984C154.516 69.1484 154.914 69.0234 155.242 69.0234C155.82 69.0234 156.25 69.2187 156.531 69.6094C156.828 70 156.977 70.5234 156.977 71.1797C156.977 71.5391 156.914 71.8984 156.789 72.2578C156.68 72.6016 156.555 72.9297 156.414 73.2422C156.273 73.5391 156.141 73.7969 156.016 74.0156C155.906 74.2344 155.844 74.375 155.828 74.4375C156.391 75.4375 156.977 76.3203 157.586 77.0859C158.195 77.8516 158.75 78.6094 159.25 79.3594C159.766 80.1094 160.188 80.9062 160.516 81.75C160.844 82.5937 161.008 83.5859 161.008 84.7266C161.008 85.0078 160.984 85.2969 160.938 85.5937C160.906 85.8906 160.852 86.1719 160.773 86.4375C161.336 86.3281 161.828 86.1562 162.25 85.9219C162.688 85.6875 163.063 85.4219 163.375 85.125C163.703 84.8125 163.969 84.4766 164.172 84.1172C164.391 83.7578 164.57 83.3828 164.711 82.9922C164.883 82.5391 165.055 82.2109 165.227 82.0078C165.398 81.8047 165.594 81.7031 165.813 81.7031C166.016 81.7031 166.219 81.7734 166.422 81.9141C166.641 82.0391 166.828 82.2031 166.984 82.4062C167.156 82.6094 167.289 82.8203 167.383 83.0391C167.492 83.2578 167.547 83.4531 167.547 83.625C167.547 83.8594 167.484 84.1406 167.359 84.4687C167.234 84.7969 167.063 85.1328 166.844 85.4766C166.641 85.8203 166.406 86.1562 166.141 86.4844C165.875 86.7969 165.602 87.0703 165.32 87.3047C164.57 87.9141 163.688 88.4297 162.672 88.8516C161.656 89.2578 160.398 89.5156 158.898 89.625C158.32 90.125 157.633 90.5312 156.836 90.8437C156.055 91.1719 155.172 91.3359 154.188 91.3359C153.688 91.3359 153.172 91.2734 152.641 91.1484C152.125 91.0234 151.625 90.8594 151.141 90.6562C150.672 90.4687 150.242 90.2578 149.852 90.0234C149.461 89.7891 149.148 89.5547 148.914 89.3203C148.32 88.7578 147.938 88.1953 147.766 87.6328C147.594 87.0547 147.555 86.5391 147.648 86.0859C147.727 85.6328 147.891 85.2656 148.141 84.9844C148.391 84.6875 148.648 84.5391 148.914 84.5391C149.07 84.5391 149.313 84.6094 149.641 84.75C149.984 84.875 150.375 85.0469 150.813 85.2656C151.25 85.4687 151.727 85.6875 152.242 85.9219C152.758 86.1562 153.273 86.3828 153.789 86.6016C154.305 86.8047 154.805 86.9766 155.289 87.1172C155.789 87.2422 156.242 87.3047 156.648 87.3047C156.914 86.9922 157.156 86.5781 157.375 86.0625C157.594 85.5469 157.703 84.9844 157.703 84.375C157.703 83.625 157.602 82.9297 157.398 82.2891C157.195 81.6484 156.93 81.0547 156.602 80.5078C156.273 79.9609 155.898 79.4531 155.477 78.9844C155.07 78.5 154.656 78.0469 154.234 77.625C153.859 78.5469 153.531 79.4609 153.25 80.3672C152.969 81.2578 152.672 82.2734 152.359 83.4141ZM160.633 67.4297C160.992 67.4609 161.391 67.4844 161.828 67.5C162.203 67.5312 162.656 67.5547 163.188 67.5703C163.719 67.5703 164.313 67.5781 164.969 67.5937V59.4609C164.969 59.1172 164.938 58.8437 164.875 58.6406C164.828 58.4375 164.773 58.2812 164.711 58.1719C164.664 58.0469 164.609 57.9531 164.547 57.8906C164.5 57.8125 164.477 57.7344 164.477 57.6562C164.477 57.5625 164.523 57.4844 164.617 57.4219C164.711 57.3594 164.836 57.3047 164.992 57.2578C165.148 57.2109 165.313 57.1797 165.484 57.1641C165.672 57.1328 165.852 57.1172 166.023 57.1172C166.82 57.1172 167.445 57.3281 167.898 57.75C168.367 58.1562 168.602 58.6484 168.602 59.2266V67.6406C170.07 67.6406 171.617 67.625 173.242 67.5937C174.883 67.5625 176.523 67.5078 178.164 67.4297C178.383 67.1953 178.555 67.1094 178.68 67.1719C178.82 67.2344 178.906 67.3828 178.938 67.6172C178.984 67.8516 178.992 68.1406 178.961 68.4844C178.93 68.8281 178.867 69.1641 178.773 69.4922C178.68 69.8047 178.547 70.0781 178.375 70.3125C178.219 70.5469 178.039 70.6641 177.836 70.6641C175.914 70.7109 174.211 70.7422 172.727 70.7578C171.258 70.7578 169.883 70.7578 168.602 70.7578V85.9687C168.602 86.75 168.75 87.3125 169.047 87.6562C169.344 88 169.742 88.1719 170.242 88.1719C170.727 88.1719 171.141 88 171.484 87.6562C171.844 87.3125 172.148 86.8828 172.398 86.3672C172.664 85.8516 172.875 85.2969 173.031 84.7031C173.203 84.0937 173.344 83.5234 173.453 82.9922C173.547 82.4922 173.703 82.1328 173.922 81.9141C174.141 81.6797 174.367 81.5625 174.602 81.5625C174.789 81.5625 174.984 81.625 175.188 81.75C175.391 81.8594 175.57 82.0078 175.727 82.1953C175.898 82.3828 176.031 82.5937 176.125 82.8281C176.234 83.0625 176.289 83.2969 176.289 83.5312C176.289 83.5625 176.289 83.6016 176.289 83.6484C176.289 83.6953 176.273 83.7656 176.242 83.8594C176.039 84.6562 175.758 85.4922 175.398 86.3672C175.055 87.2422 174.602 88.0469 174.039 88.7812C173.492 89.5156 172.836 90.125 172.07 90.6094C171.305 91.0937 170.406 91.3359 169.375 91.3359C168.734 91.3359 168.141 91.2344 167.594 91.0312C167.063 90.8437 166.602 90.5312 166.211 90.0937C165.82 89.6719 165.516 89.125 165.297 88.4531C165.078 87.7812 164.969 86.9687 164.969 86.0156V70.7578C164.438 70.7578 163.961 70.7578 163.539 70.7578C163.133 70.7422 162.789 70.7266 162.508 70.7109C162.18 70.6953 161.891 70.6797 161.641 70.6641C161.266 70.6641 160.938 70.5 160.656 70.1719C160.359 69.8281 160.156 69.4531 160.047 69.0469C159.922 68.6406 159.906 68.2734 160 67.9453C160.078 67.6016 160.289 67.4297 160.633 67.4297Z" fill="black"/>
<defs>
<linearGradient id="paint0_linear_1_2" x1="109.328" y1="37.1367" x2="43.3377" y2="120.914" gradientUnits="userSpaceOnUse">
<stop stop-color="#ADF76D"/>
<stop offset="1" stop-color="#FFA4EE"/>
</linearGradient>
<linearGradient id="paint1_linear_1_2" x1="109.125" y1="113.165" x2="187.541" y2="40.8854" gradientUnits="userSpaceOnUse">
<stop stop-color="#ADF76D"/>
<stop offset="1" stop-color="#FFA4EE"/>
</linearGradient>
</defs>
</svg>
